<svg width="113" height="108" viewBox="0 0 113 108" fill="none" xmlns="http://www.w3.org/2000/svg">
<g filter="url(#filter0_d_19_12)">
<path d="M76.6971 69.5627C80.5688 69.1619 83.5061 65.8242 83.3725 61.8184C83.2393 57.8131 79.9012 54.6086 75.8959 54.6086H75.6291C71.4897 54.7422 68.2856 58.2135 68.4193 62.3525C68.5529 64.3553 69.3537 66.091 70.5553 67.2926C66.016 76.2385 59.0734 82.7807 48.6594 88.2549C41.5832 91.9934 34.2402 93.3287 26.8971 92.3943C20.8889 91.593 16.216 88.923 13.2783 84.5164C9.00614 77.9742 8.60573 70.8975 12.2107 63.8213C14.7475 58.7475 18.7525 55.009 21.2893 53.1398C20.7553 51.4041 19.9541 48.4668 19.5537 46.3307C0.194258 60.35 2.19713 79.3094 8.07172 88.2549C12.4775 94.9311 21.4229 99.0701 31.3029 99.0701C33.9729 99.0701 36.643 98.8029 39.3135 98.1357C56.4033 94.7975 69.3541 84.65 76.6971 69.5627ZM100.195 53.0066C90.0483 41.1234 75.0951 34.5811 58.0053 34.5811H55.8693C54.6676 32.1779 52.1307 30.5754 49.327 30.5754H49.0598C44.9213 30.709 41.7172 34.1803 41.8504 38.3197C41.984 42.325 45.3217 45.5295 49.327 45.5295H49.5938C52.5311 45.3959 55.068 43.5266 56.1361 40.9898H58.5393C68.6865 40.9898 78.2992 43.927 86.9779 49.6684C93.6533 54.0746 98.4598 59.816 101.13 66.7586C103.4 72.3664 103.266 77.8406 100.863 82.5139C97.1246 89.5902 90.8496 93.4623 82.5717 93.4623C77.2311 93.4623 72.1578 91.8598 69.4873 90.6582C68.0188 91.9934 65.3484 94.1295 63.4791 95.4652C69.2205 98.1352 75.0951 99.6041 80.7025 99.6041C93.5197 99.6041 102.999 92.5275 106.604 85.4512C110.476 77.707 110.209 64.3553 100.195 53.0066ZM32.3709 71.832C32.5045 75.8377 35.8422 79.0418 39.8475 79.0418H40.1147C44.2537 78.9086 47.4578 75.4369 47.3242 71.2979C47.191 67.2922 43.8529 64.0881 39.8475 64.0881H39.5807C39.3135 64.0881 38.9127 64.0881 38.6463 64.2213C33.1721 55.1422 30.9025 45.2623 31.7037 34.5807C32.2373 26.5697 34.9078 19.6266 39.5807 13.8852C43.4525 8.94508 50.9291 6.5418 56.0029 6.40861C70.1549 6.14139 76.1627 23.7656 76.5635 30.8422C78.2992 31.2426 81.2365 32.1775 83.2393 32.8451C81.6369 11.2156 68.2856 0 55.4688 0C43.4524 0 32.3709 8.67869 27.9647 21.4963C21.8234 38.5865 25.8287 55.009 33.3053 67.9602C32.6381 68.8947 32.2373 70.3635 32.3709 71.8324V71.832Z" fill="#764ABC"/>
</g>
<defs>
<filter id="filter0_d_19_12" x="0" y="0" width="112.918" height="107.604" filterUnits="userSpaceOnUse" color-interpolation-filters="sRGB">
<feFlood flood-opacity="0" result="BackgroundImageFix"/>
<feColorMatrix in="SourceAlpha" type="matrix" values="0 0 0 0 0 0 0 0 0 0 0 0 0 0 0 0 0 0 127 0" result="hardAlpha"/>
<feOffset dy="4"/>
<feGaussianBlur stdDeviation="2"/>
<feComposite in2="hardAlpha" operator="out"/>
<feColorMatrix type="matrix" values="0 0 0 0 0 0 0 0 0 0 0 0 0 0 0 0 0 0 0.25 0"/>
<feBlend mode="normal" in2="BackgroundImageFix" result="effect1_dropShadow_19_12"/>
<feBlend mode="normal" in="SourceGraphic" in2="effect1_dropShadow_19_12" result="shape"/>
</filter>
</defs>
</svg>
